<svg xmlns="http://www.w3.org/2000/svg" width="200" height="200" viewBox="0 0 200 200">
  <circle cx="100" cy="100" r="95" fill="#0891b2" stroke="#ffffff" stroke-width="4"/>
  
  <!-- Multiple people collaborating -->
  <g transform="translate(60,60)">
    <circle cx="0" cy="0" r="12" fill="white"/>
    <path d="M0 12 Q0 18 6 18 L-6 18 Q0 18 0 12" fill="white"/>
  </g>
  
  <g transform="translate(140,60)">
    <circle cx="0" cy="0" r="12" fill="white"/>
    <path d="M0 12 Q0 18 6 18 L-6 18 Q0 18 0 12" fill="white"/>
  </g>
  
  <g transform="translate(100,40)">
    <circle cx="0" cy="0" r="12" fill="white"/>
    <path d="M0 12 Q0 18 6 18 L-6 18 Q0 18 0 12" fill="white"/>
  </g>
  
  <!-- Collaboration lines -->
  <line x1="72" y1="68" x2="128" y2="68" stroke="white" stroke-width="2" stroke-dasharray="3,3"/>
  <line x1="88" y1="48" x2="112" y2="48" stroke="white" stroke-width="2" stroke-dasharray="3,3"/>
  <line x1="85" y1="52" x2="75" y2="62" stroke="white" stroke-width="2" stroke-dasharray="3,3"/>
  <line x1="115" y1="52" x2="125" y2="62" stroke="white" stroke-width="2" stroke-dasharray="3,3"/>
  
  <!-- Shared document/data -->
  <rect x="70" y="110" width="60" height="50" rx="5" fill="white"/>
  <line x1="80" y1="125" x2="120" y2="125" stroke="#0891b2" stroke-width="2"/>
  <line x1="80" y1="135" x2="115" y2="135" stroke="#0891b2" stroke-width="2"/>
  <line x1="80" y1="145" x2="110" y2="145" stroke="#0891b2" stroke-width="2"/>
  
  <!-- DNA strand in document -->
  <path d="M85 150 Q95 155 105 150 Q115 145 125 150" stroke="#0891b2" stroke-width="2" fill="none"/>
  
  <!-- Input arrows -->
  <path d="M60 85 L75 100" stroke="white" stroke-width="3" fill="none" marker-end="url(#arrowhead3)"/>
  <path d="M140 85 L125 100" stroke="white" stroke-width="3" fill="none" marker-end="url(#arrowhead3)"/>
  <path d="M100 65 L100 85" stroke="white" stroke-width="3" fill="none" marker-end="url(#arrowhead3)"/>
  
  <defs>
    <marker id="arrowhead3" markerWidth="10" markerHeight="7" 
            refX="0" refY="3.5" orient="auto">
      <polygon points="0 0, 10 3.5, 0 7" fill="white" />
    </marker>
  </defs>
</svg>